<svg width="73" height="76" viewBox="0 0 73 76" fill="none" xmlns="http://www.w3.org/2000/svg">
<path d="M58.7746 58.0651C62.486 46.5824 53.222 39.9834 48.7802 38.6363C47.0443 38.1098 45.7075 36.7732 45.1811 35.0371C43.834 30.5954 36.5632 21.7109 25.0805 25.4222C9.19206 30.5575 5.61642 48.32 10.8007 56.5861C13.9443 61.5985 19.2979 63.3889 20.1987 63.3197C20.2387 63.3168 20.2788 63.3226 20.3164 63.3366C20.354 63.3506 20.3881 63.3725 20.4165 63.4008C20.4448 63.4292 20.4668 63.4633 20.4808 63.5009C20.4948 63.5385 20.5005 63.5786 20.4976 63.6186C20.4283 64.5195 21.8091 69.9971 26.3016 72.6208C34.7273 77.5416 53.6392 73.9535 58.7746 58.0651Z" fill="#FF5524" fill-opacity="0.7"/>
<path d="M35.0175 75.9797C31.4824 75.9797 28.1951 75.2307 25.6467 73.7423C21.5583 71.3546 19.696 66.7655 19.2862 64.5015C18.2924 64.2709 16.964 63.7187 15.6909 62.9831C13.9657 61.9861 11.5259 60.1868 9.70037 57.2763C8.29892 55.0416 7.47361 52.1891 7.31381 49.0272C7.1539 45.8631 7.67124 42.5364 8.81013 39.4069C10.0429 36.019 12.0053 32.9015 14.4847 30.3915C17.2864 27.5554 20.7169 25.4676 24.681 24.1864C29.3567 22.6752 33.9573 22.9898 37.9859 25.0966C42.5077 27.4613 45.5297 31.7117 46.424 34.6601C46.619 35.3056 46.9706 35.8929 47.4474 36.3698C47.9243 36.8466 48.5116 37.1982 49.1572 37.3933C51.6318 38.1439 56.5349 40.7813 59.2147 45.9057C61.2056 49.7128 61.4734 53.9383 60.0104 58.4645C57.6611 65.733 52.2854 71.2947 44.8733 74.1253C41.6301 75.3638 38.2219 75.9797 35.0175 75.9797ZM21.7939 63.6979C21.8067 64.5685 23.1682 69.2866 26.9566 71.4992C31.0978 73.9177 37.9253 73.998 43.9468 71.6986C50.6092 69.1544 55.4363 64.1708 57.5386 57.6656C58.7793 53.8275 58.5687 50.2758 56.9128 47.1094C54.6271 42.7386 50.3471 40.4686 48.4033 39.8791C47.3488 39.5604 46.3893 38.986 45.6103 38.207C44.8313 37.428 44.2569 36.4686 43.9383 35.414C43.3191 33.3725 40.9023 29.5531 36.7822 27.3985C33.337 25.5968 29.5344 25.3476 25.4801 26.658C16.343 29.6112 12.6433 36.4698 11.2512 40.2953C9.21379 45.8942 9.46888 52.0179 11.9012 55.896C14.79 60.5021 19.5349 61.9703 20.1414 62.022C20.3614 62.0111 20.5813 62.0464 20.7868 62.1256C20.9923 62.2049 21.1789 62.3263 21.3347 62.4821C21.4933 62.6404 21.6163 62.8308 21.6955 63.0405C21.7747 63.2501 21.8082 63.4743 21.7939 63.6979Z" fill="#300604" fill-opacity="0.25"/>
<path d="M49.2068 44.1614C48.3593 44.1614 45.5478 43.9225 42.6482 41.0229C39.3059 37.6806 39.1355 34.1091 39.1299 33.9586L40.1682 33.9199L41.2062 33.8752C41.2121 33.994 41.3797 36.8156 44.1177 39.5534C46.791 42.2269 49.2481 42.0849 49.272 42.0829L49.4602 44.1525C49.4399 44.1544 49.3523 44.1614 49.2068 44.1614Z" fill="#300604" fill-opacity="0.25"/>
<path d="M44.3399 41.1662L42.4258 39.4102C52.0935 28.8716 48.965 19.7337 48.9321 19.6427L51.3767 18.7641C51.4169 18.876 52.3568 21.5521 51.9267 25.6662C51.5378 29.3884 49.9057 35.0991 44.3399 41.1662Z" fill="#300604" fill-opacity="0.25"/>
<path d="M49.4319 32.4088C49.4319 32.4088 65.134 21.0429 71.7696 31.3576C71.7696 31.3576 65.1997 41.8695 49.4319 32.4088Z" fill="#ED8F27" fill-opacity="0.5"/>
<path d="M61.534 37.3964C60.8519 37.3964 60.1564 37.3534 59.4486 37.2672C56.1696 36.868 52.6196 35.5332 48.8973 33.2998L47.5477 32.4899L48.8227 31.5671C49.2074 31.2885 58.3335 24.7624 65.9507 26.1976C68.7711 26.7292 71.0228 28.2761 72.6435 30.7954L73 31.3495L72.6509 31.9082C72.5764 32.0273 70.7837 34.8419 66.8996 36.3956C65.2345 37.0617 63.4365 37.3964 61.534 37.3964ZM51.4171 32.3455C54.3516 33.9316 57.1315 34.8918 59.6997 35.2044C62.0312 35.4882 64.1938 35.24 66.1277 34.4663C68.4354 33.5432 69.854 32.1054 70.4912 31.3356C69.2271 29.6403 67.6095 28.6251 65.5657 28.24C62.083 27.5834 58.0649 28.9672 55.3072 30.2434C53.7158 30.9797 52.356 31.763 51.4171 32.3455ZM46.9169 64.1985L45.4017 62.0886C49.1953 59.3643 51.1096 56.286 51.0914 52.9391C51.0777 50.4269 49.9359 48.6465 49.9244 48.6288L52.0893 47.1934C52.152 47.2874 53.6246 49.5326 53.6871 52.7716C53.7439 55.7257 52.6157 60.1062 46.9169 64.1985ZM39.4522 68.2266C39.2484 68.2266 39.0448 68.2153 38.8422 68.1927L39.1309 65.6111C40.8243 65.8007 42.2599 64.4155 42.2742 64.4014L44.1097 66.2395C44.0234 66.3264 42.0985 68.2266 39.4522 68.2266ZM27.8739 0H30.4715V19.2033H27.8739V0ZM42.0841 9.60163H44.6817V22.6706H42.0841V9.60163ZM17.4676 13.0078H20.0651V38.5216H17.4676V13.0078ZM0 37.3615H2.59759V60.2168H0V37.3615ZM0 20.1155H2.59759V20.5336H0V20.1155ZM0 20.5336H2.59759V22.6706H0V20.5336ZM0 25.9623H2.59759V28.0993H0V25.9623ZM0 31.391H2.59759V33.5279H0V31.391Z" fill="#300604" fill-opacity="0.25"/>
</svg>
