<svg width="124" height="124" viewBox="0 0 124 124" fill="none" xmlns="http://www.w3.org/2000/svg">
<path d="M72.4709 52.2838C82.6578 49.3552 91.8612 43.3667 98.7555 35.3642C97.406 43.6546 96.2747 51.9738 95.3507 60.3203C95.0654 62.902 99.0676 63.4414 99.3543 60.8487C100.592 49.7023 102.203 38.5939 104.192 27.5577C104.53 25.6711 101.655 24.326 100.595 26.0508C93.8568 36.9929 83.2636 45.0178 70.9092 48.5593C68.4066 49.2723 69.9901 52.9997 72.4709 52.2838Z" fill="#F26A40"/>
<path d="M22.6355 98.4581C43.947 93.99 62.9986 82.3422 78.3595 67.1218C82.7144 62.8019 86.7817 58.2221 90.5601 53.3933C92.1629 51.3407 88.9711 48.8661 87.3683 50.9187C74.5807 67.2446 58.2066 81.1437 38.9642 89.1924C33.5137 91.4698 27.8633 93.2435 22.0762 94.4553C19.5544 94.9771 20.0905 98.988 22.6355 98.4581Z" fill="#F26A40"/>
</svg>
