<svg width="21" height="20" viewBox="0 0 21 20" fill="none" xmlns="http://www.w3.org/2000/svg">
<path d="M19.6668 10C19.6668 15.0626 15.5627 19.1667 10.5002 19.1667C5.43755 19.1667 1.3335 15.0626 1.3335 10C1.3335 4.9374 5.43755 0.833344 10.5002 0.833344C15.5627 0.833344 19.6668 4.9374 19.6668 10ZM3.00585 10C3.00585 14.139 6.36117 17.4943 10.5002 17.4943C14.6392 17.4943 17.9945 14.139 17.9945 10C17.9945 5.86102 14.6392 2.5057 10.5002 2.5057C6.36117 2.5057 3.00585 5.86102 3.00585 10Z" fill="#5C5D5F"/>
<path d="M10.5003 4.16669C10.0401 4.16669 9.66699 4.53978 9.66699 5.00002V10.3889C9.66699 10.3889 9.66699 10.6062 9.77258 10.7696C9.84324 10.9082 9.95341 11.0286 10.0982 11.1122L13.948 13.3349C14.3466 13.565 14.8562 13.4284 15.0863 13.0299C15.3164 12.6313 15.1799 12.1216 14.7813 11.8915L11.3337 9.90102V5.00002C11.3337 4.53979 10.9606 4.16669 10.5003 4.16669Z" fill="#5C5D5F"/>
</svg>
