<svg width="276" height="275" viewBox="0 0 276 275" fill="none" xmlns="http://www.w3.org/2000/svg">
<path d="M133.359 30.0781V12.8906C133.359 10.5188 135.28 8.59375 137.656 8.59375C140.032 8.59375 141.953 10.5188 141.953 12.8906V30.0781C141.953 32.45 140.032 34.375 137.656 34.375C135.28 34.375 133.359 32.45 133.359 30.0781ZM137.656 240.625C135.28 240.625 133.359 242.55 133.359 244.922V262.109C133.359 264.481 135.28 266.406 137.656 266.406C140.032 266.406 141.953 264.481 141.953 262.109V244.922C141.953 242.55 140.032 240.625 137.656 240.625ZM262.266 133.203H245.078C242.702 133.203 240.781 135.128 240.781 137.5C240.781 139.872 242.702 141.797 245.078 141.797H262.266C264.642 141.797 266.562 139.872 266.562 137.5C266.562 135.128 264.642 133.203 262.266 133.203ZM30.2344 133.203H13.0469C10.6707 133.203 8.75 135.128 8.75 137.5C8.75 139.872 10.6707 141.797 13.0469 141.797H30.2344C32.6105 141.797 34.5312 139.872 34.5312 137.5C34.5312 135.128 32.6105 133.203 30.2344 133.203ZM213.616 65.8367C214.716 65.8367 215.816 65.4156 216.654 64.5777L228.806 52.4219C230.486 50.7418 230.486 48.0219 228.806 46.3461C227.126 44.666 224.41 44.666 222.73 46.3461L210.579 58.502C208.898 60.182 208.898 62.902 210.579 64.5777C211.416 65.4199 212.516 65.8367 213.616 65.8367ZM58.6582 210.422L46.5066 222.574C44.8266 224.254 44.8266 226.97 46.5066 228.65C47.3445 229.488 48.4445 229.909 49.5445 229.909C50.6445 229.909 51.7445 229.488 52.5824 228.65L64.734 216.498C66.4141 214.818 66.4141 212.102 64.734 210.422C63.0539 208.742 60.3383 208.742 58.6582 210.422ZM216.654 210.422C214.974 208.742 212.259 208.742 210.579 210.422C208.898 212.102 208.898 214.818 210.579 216.498L222.73 228.65C223.568 229.488 224.668 229.909 225.768 229.909C226.868 229.909 227.968 229.488 228.806 228.65C230.486 226.97 230.486 224.254 228.806 222.574L216.654 210.422ZM58.6582 64.5777C59.4961 65.4156 60.5961 65.8367 61.6961 65.8367C62.7961 65.8367 63.8961 65.4156 64.734 64.5777C66.4141 62.902 66.4141 60.182 64.734 58.502L52.5824 46.3461C50.9023 44.666 48.1867 44.666 46.5066 46.3461C44.8266 48.0219 44.8266 50.7418 46.5066 52.4219L58.6582 64.5777Z" fill="#F16437"/>
<path d="M137.656 60.1562C95.0098 60.1562 60.3125 94.8535 60.3125 137.5C60.3125 180.146 95.0098 214.844 137.656 214.844C180.303 214.844 215 180.146 215 137.5C215 94.8535 180.303 60.1562 137.656 60.1562ZM137.656 206.25C99.7492 206.25 68.9062 175.407 68.9062 137.5C68.9062 99.593 99.7492 68.75 137.656 68.75C175.563 68.75 206.406 99.593 206.406 137.5C206.406 175.407 175.563 206.25 137.656 206.25Z" fill="url(#paint0_linear_160_8711)"/>
<path d="M163.644 101.93L118.045 141.019L115.514 133.426C113.757 128.15 108.841 124.609 103.281 124.609C101.898 124.609 100.527 124.833 99.2035 125.271C95.9379 126.362 93.291 128.657 91.7527 131.733C90.2144 134.814 89.9652 138.308 91.0566 141.577L99.6504 167.359C101.008 171.436 104.295 174.556 108.437 175.703C109.559 176.013 110.715 176.172 111.875 176.172C114.947 176.172 117.925 175.072 120.262 173.069L180.419 121.507C183.031 119.268 184.621 116.14 184.883 112.707C185.15 109.274 184.058 105.943 181.815 103.327C177.368 98.136 168.839 97.4786 163.644 101.93ZM174.829 114.98L114.672 166.542C113.594 167.462 112.098 167.801 110.723 167.423C109.348 167.041 108.253 166.001 107.793 164.643L99.1992 138.862C98.8383 137.775 98.9242 136.61 99.4355 135.583C99.9469 134.556 100.828 133.792 101.915 133.431C102.362 133.276 102.826 133.203 103.281 133.203C105.133 133.203 106.775 134.384 107.359 136.146L111.914 149.802C112.361 151.159 113.461 152.204 114.844 152.582C116.215 152.96 117.702 152.629 118.784 151.701L169.238 108.457C170.231 107.602 171.301 107.422 172.027 107.422C173.286 107.422 174.476 107.967 175.293 108.921C176.045 109.793 176.405 110.902 176.315 112.049C176.229 113.192 175.701 114.232 174.829 114.98Z" fill="url(#paint1_linear_160_8711)"/>
<defs>
<linearGradient id="paint0_linear_160_8711" x1="137.656" y1="60.1562" x2="137.656" y2="214.844" gradientUnits="userSpaceOnUse">
<stop stop-color="#F16437"/>
<stop offset="1" stop-color="#D74618"/>
</linearGradient>
<linearGradient id="paint1_linear_160_8711" x1="137.655" y1="98.9717" x2="137.655" y2="176.172" gradientUnits="userSpaceOnUse">
<stop stop-color="#F16437"/>
<stop offset="1" stop-color="#77A1C8"/>
</linearGradient>
</defs>
</svg>
