<svg width="18" height="18" viewBox="0 0 18 18" fill="none" xmlns="http://www.w3.org/2000/svg">
<path d="M4.5 7.5H7.5" stroke="#5C5D5F" stroke-width="1.5" stroke-linecap="round" stroke-linejoin="round"/>
<path d="M15.625 8.25H13.6731C12.3349 8.25 11.25 9.25732 11.25 10.5C11.25 11.7427 12.3349 12.75 13.6731 12.75H15.625C15.6875 12.75 15.7187 12.75 15.7451 12.7484C16.1496 12.7238 16.4717 12.4246 16.4983 12.049C16.5 12.0245 16.5 11.9955 16.5 11.9375V9.06247C16.5 9.0045 16.5 8.97547 16.4983 8.95095C16.4717 8.57535 16.1496 8.27625 15.7451 8.25157C15.7187 8.25 15.6875 8.25 15.625 8.25Z" stroke="#5C5D5F" stroke-width="1.5"/>
<path d="M15.7238 8.25C15.6655 6.84577 15.4774 5.98481 14.8713 5.37868C13.9927 4.5 12.5784 4.5 9.75 4.5H7.5C4.67157 4.5 3.25736 4.5 2.37868 5.37868C1.5 6.25736 1.5 7.6716 1.5 10.5C1.5 13.3284 1.5 14.7427 2.37868 15.6213C3.25736 16.5 4.67157 16.5 7.5 16.5H9.75C12.5784 16.5 13.9927 16.5 14.8713 15.6213C15.4774 15.0152 15.6655 14.1542 15.7238 12.75" stroke="#5C5D5F" stroke-width="1.5"/>
<path d="M4.5 4.5L7.30162 2.64235C8.09055 2.11922 9.15945 2.11922 9.94837 2.64235L12.75 4.5" stroke="#5C5D5F" stroke-width="1.5" stroke-linecap="round"/>
<path d="M13.4934 10.5H13.5002" stroke="#5C5D5F" stroke-width="2" stroke-linecap="round" stroke-linejoin="round"/>
</svg>
