<svg width="73" height="77" viewBox="0 0 73 77" fill="none" xmlns="http://www.w3.org/2000/svg">
<g filter="url(#filter0_d_124_2180)">
<path fill-rule="evenodd" clip-rule="evenodd" d="M32.5204 1.06409C40.5937 1.85464 43.3608 11.8718 49.3393 17.3585C55.8725 23.3543 66.8253 25.5011 68.6148 34.1894C70.5485 43.5773 64.9186 53.056 58.0728 59.7601C51.2976 66.395 41.9613 70.392 32.5204 69.5365C23.7189 68.7389 16.6649 62.4729 11.2117 55.5135C6.455 49.443 4.66797 41.902 4.82321 34.1894C4.97468 26.6636 7.22619 19.4803 12.0531 13.7074C17.4018 7.31051 24.2253 0.251823 32.5204 1.06409Z" fill="#F16437"/>
</g>
<g clip-path="url(#clip0_124_2180)">
<path d="M46.4012 10.2888C39.9004 10.2888 34.1819 13.6289 30.8567 18.6853C31.5053 19.2535 32.1806 20.0414 32.7893 21.1388C35.488 16.4105 40.5709 13.2211 46.4012 13.2211C55.0548 13.2211 62.0703 20.2417 62.0703 28.9027C62.0703 37.5631 55.0548 44.5842 46.4012 44.5842C41.7949 44.5842 37.6533 42.5945 34.7862 39.4275C34.3963 40.3784 33.5608 41.0927 32.5456 41.3165C35.9511 45.1209 40.8955 47.5167 46.4009 47.5167C56.6729 47.5167 64.9997 39.1827 64.9997 28.9029C64.9999 18.6224 56.6729 10.2888 46.4012 10.2888Z" fill="white"/>
<path d="M22.005 37.358H23.0505V57.726C23.0505 59.2675 24.2988 60.5159 25.8382 60.5159C27.3772 60.5159 28.6255 59.2675 28.6255 57.726V23.8805C29.4072 25.4825 30.2033 28.5518 30.1958 34.016C30.1958 35.2606 30.1557 36.627 30.0678 38.1277C30.0091 39.1227 30.768 39.9772 31.7627 40.0354C31.7988 40.0372 31.8344 40.0386 31.8698 40.0386C32.8179 40.0381 33.6128 39.2983 33.6692 38.3389C33.7607 36.7743 33.8031 35.3377 33.8031 34.0162C33.8004 28.9038 33.1786 25.5179 32.2526 23.1756C31.3386 20.8431 30.0308 19.5263 28.8181 18.9243C28.0479 18.5357 27.372 18.4484 26.9646 18.443C26.9378 18.4419 26.9109 18.4389 26.8836 18.4389H20.8953C20.8962 18.4883 20.8969 18.5463 20.8971 18.6208C20.8937 19.5046 20.7966 22.1192 19.6779 25.1132L18.4293 24.587C19.4465 21.8286 19.5478 19.3999 19.5444 18.6208C19.5444 18.5398 19.5435 18.4809 19.5424 18.4389H18.1723C18.0645 18.4389 17.9597 18.4502 17.8573 18.4689L17.8575 18.471C17.1613 18.5495 16.5573 18.8227 16.0289 19.1718C15.4059 19.5888 14.8673 20.133 14.4022 20.7758C13.4805 22.059 12.8416 23.7646 12.8375 25.7041C12.8353 27.1563 13.2145 28.7298 14.0938 30.2393C14.971 31.7508 16.3317 33.1888 18.2365 34.4634C18.5443 34.6696 18.8931 34.7689 19.2385 34.7689C19.8194 34.7689 20.3905 34.4873 20.7384 33.9672C21.2923 33.1387 21.0705 32.0173 20.2422 31.4629C18.7143 30.4383 17.7759 29.3946 17.2123 28.425C16.6509 27.4528 16.4469 26.5462 16.4448 25.7041C16.4439 24.9175 16.6333 24.1842 16.9226 23.5764C17.2075 22.9703 17.603 22.4985 17.913 22.2596C18.0095 22.1822 18.0916 22.1332 18.1542 22.1016L18.1959 22.6118C17.9597 22.7934 17.5983 23.2 17.3313 23.7686C17.045 24.3688 16.8953 25.0369 16.8957 25.7036C16.8971 26.1475 16.9604 26.5791 17.0856 27.0058L17.89 25.0938L24.8766 28.0389L21.1228 36.9589L14.1364 34.0148L14.9169 32.1599C14.4514 31.6173 14.0449 31.0525 13.7037 30.4656C12.8398 28.9814 12.3844 27.3345 12.3871 25.7032C12.3905 23.8329 12.9757 21.989 14.0358 20.5123C14.5478 19.804 15.134 19.2277 15.7782 18.7963C16.4205 18.3719 17.1613 18.1034 17.8203 18.015L17.8206 18.019C17.9355 18.0005 18.0523 17.9881 18.1723 17.9881H21.472C20.2805 17.7336 18.2262 17.3437 16.8998 17.3624C16.5573 17.3672 16.2627 17.3985 16.0451 17.4674C14.6175 17.9186 10.6342 20.6262 9.1687 28.6362C8.06668 34.659 12.6053 39.3739 15.9793 40.1915V35.5259L16.4302 35.7159V57.7262C16.4302 59.2677 17.6783 60.5161 19.2177 60.5161C20.4083 60.5161 21.4222 59.7675 21.8215 58.7154C21.9385 58.4076 22.005 58.075 22.005 57.7262V37.358Z" fill="white"/>
<path d="M22.5276 17.1535C25.3292 17.1535 27.6003 14.8806 27.6003 12.0767C27.6003 9.27294 25.3292 7 22.5276 7C19.726 7 17.4548 9.27294 17.4548 12.0767C17.4548 14.8806 19.726 17.1535 22.5276 17.1535Z" fill="white"/>
<path d="M18.4281 26.9778L18.2246 27.4615L22.9502 29.453L23.1538 28.9693L18.4281 26.9778Z" fill="white"/>
<path d="M18.0198 27.949L17.8169 28.4327L22.5451 30.4194L22.748 29.9357L18.0198 27.949Z" fill="white"/>
</g>
<defs>
<filter id="filter0_d_124_2180" x="0.813965" y="0" width="72.186" height="76.6512" filterUnits="userSpaceOnUse" color-interpolation-filters="sRGB">
<feFlood flood-opacity="0" result="BackgroundImageFix"/>
<feColorMatrix in="SourceAlpha" type="matrix" values="0 0 0 0 0 0 0 0 0 0 0 0 0 0 0 0 0 0 127 0" result="hardAlpha"/>
<feOffset dy="3"/>
<feGaussianBlur stdDeviation="2"/>
<feComposite in2="hardAlpha" operator="out"/>
<feColorMatrix type="matrix" values="0 0 0 0 0.880833 0 0 0 0 0.432169 0 0 0 0 0.293611 0 0 0 0.15 0"/>
<feBlend mode="normal" in2="BackgroundImageFix" result="effect1_dropShadow_124_2180"/>
<feBlend mode="normal" in="SourceGraphic" in2="effect1_dropShadow_124_2180" result="shape"/>
</filter>
<clipPath id="clip0_124_2180">
<rect width="56" height="53.5161" fill="white" transform="translate(9 7)"/>
</clipPath>
</defs>
</svg>
