<svg width="73" height="77" viewBox="0 0 73 77" fill="none" xmlns="http://www.w3.org/2000/svg">
<g filter="url(#filter0_d_124_3050)">
<path fill-rule="evenodd" clip-rule="evenodd" d="M32.5204 1.06409C40.5937 1.85464 43.3608 11.8718 49.3393 17.3585C55.8725 23.3543 66.8253 25.5011 68.6148 34.1894C70.5485 43.5773 64.9186 53.056 58.0728 59.7601C51.2976 66.395 41.9613 70.392 32.5204 69.5365C23.7189 68.7389 16.6649 62.4729 11.2117 55.5135C6.455 49.443 4.66797 41.902 4.82321 34.1894C4.97468 26.6636 7.22619 19.4803 12.0531 13.7074C17.4018 7.31051 24.2253 0.251823 32.5204 1.06409Z" fill="#F16437"/>
</g>
<g clip-path="url(#clip0_124_3050)">
<path d="M64.8138 18.7546C64.8138 17.9381 64.296 17.2114 63.5241 16.9448C54.9181 13.9743 45.4602 13.9059 36.814 16.7366C28.1677 13.9059 18.7097 13.9743 10.1038 16.9448C9.33196 17.2114 8.81396 17.9381 8.81396 18.7546L8.81408 53.4218C8.81408 54.7113 10.1545 55.6451 11.3533 55.2316C19.3611 52.4672 28.1814 52.4674 36.1892 55.2316L36.1895 55.231C36.5894 55.3691 37.0291 55.3729 37.4388 55.2316C45.4467 52.4672 54.2667 52.4672 62.2748 55.2316C63.4704 55.644 64.8141 54.7062 64.8141 53.4218L64.8138 18.7546ZM12.643 50.8261L12.6431 20.1452C19.8691 17.9399 27.6735 17.9411 34.8994 20.1464L34.8996 50.8279C27.6387 48.8332 19.9039 48.8315 12.643 50.8261ZM60.9848 50.826C53.724 48.8316 45.9897 48.8316 38.7285 50.826L38.7285 20.1452C45.9545 17.9399 53.7591 17.94 60.9849 20.1452L60.9848 50.826Z" fill="white"/>
<path d="M41.4836 32.8697L42.2692 36.6173C47.2325 35.5766 52.4676 35.6265 57.4085 36.7611L58.2655 33.0292C52.7884 31.7714 46.9853 31.7162 41.4836 32.8697ZM53.6463 44.6353C54.9068 44.7839 56.1727 45.0031 57.4086 45.287L58.2656 41.5551C56.8953 41.2404 55.4919 40.9972 54.0946 40.8326L53.6463 44.6353ZM41.4836 41.3956L42.2692 45.1432C45.0506 44.5599 47.9026 44.3145 50.7462 44.4141L50.8801 40.5874C47.7281 40.4767 44.5669 40.7491 41.4836 41.3956ZM41.4836 24.344L42.2692 28.0915C47.2325 27.0509 52.4676 27.1008 57.4085 28.2353L58.2655 24.5035C52.7884 23.2456 46.9853 23.1903 41.4836 24.344ZM15.3624 33.0293L16.2195 36.7612C21.1606 35.6266 26.3956 35.5767 31.3587 36.6174L32.1445 32.8698C26.6428 31.7162 20.8397 31.7714 15.3624 33.0293ZM15.3624 41.5551L16.2195 45.287C21.1606 44.1523 26.3956 44.1025 31.3587 45.1432L32.1445 41.3956C26.6428 40.242 20.8397 40.2971 15.3624 41.5551ZM31.3586 28.0915L32.1444 24.344C26.6427 23.1904 20.8397 23.2456 15.3623 24.5035L16.2194 28.2353C21.1606 27.1008 26.3956 27.0509 31.3586 28.0915Z" fill="white"/>
</g>
<defs>
<filter id="filter0_d_124_3050" x="0.813965" y="0" width="72.186" height="76.6512" filterUnits="userSpaceOnUse" color-interpolation-filters="sRGB">
<feFlood flood-opacity="0" result="BackgroundImageFix"/>
<feColorMatrix in="SourceAlpha" type="matrix" values="0 0 0 0 0 0 0 0 0 0 0 0 0 0 0 0 0 0 127 0" result="hardAlpha"/>
<feOffset dy="3"/>
<feGaussianBlur stdDeviation="2"/>
<feComposite in2="hardAlpha" operator="out"/>
<feColorMatrix type="matrix" values="0 0 0 0 0.880833 0 0 0 0 0.432169 0 0 0 0 0.293611 0 0 0 0.15 0"/>
<feBlend mode="normal" in2="BackgroundImageFix" result="effect1_dropShadow_124_3050"/>
<feBlend mode="normal" in="SourceGraphic" in2="effect1_dropShadow_124_3050" result="shape"/>
</filter>
<clipPath id="clip0_124_3050">
<rect x="8.81396" y="7" width="56" height="56" rx="10" fill="white"/>
</clipPath>
</defs>
</svg>
