<svg width="73" height="77" viewBox="0 0 73 77" fill="none" xmlns="http://www.w3.org/2000/svg">
<g filter="url(#filter0_d_124_2034)">
<path fill-rule="evenodd" clip-rule="evenodd" d="M32.5204 1.06409C40.5937 1.85464 43.3608 11.8718 49.3393 17.3585C55.8725 23.3543 66.8253 25.5011 68.6148 34.1894C70.5485 43.5773 64.9186 53.056 58.0728 59.7601C51.2976 66.395 41.9613 70.392 32.5204 69.5365C23.7189 68.7389 16.6649 62.4729 11.2117 55.5135C6.455 49.443 4.66797 41.902 4.82321 34.1894C4.97468 26.6636 7.22619 19.4803 12.0531 13.7074C17.4018 7.31051 24.2253 0.251823 32.5204 1.06409Z" fill="#F16437"/>
</g>
<g clip-path="url(#clip0_124_2034)">
<path d="M55.6666 42C56.9553 42 57.9999 40.9554 57.9999 39.6667C57.9999 38.378 56.9553 37.3333 55.6666 37.3333C54.3779 37.3333 53.3333 38.378 53.3333 39.6667C53.3333 40.9554 54.3779 42 55.6666 42Z" fill="white"/>
<path fill-rule="evenodd" clip-rule="evenodd" d="M48.1416 9.29926C52.1477 8.07516 56.3248 10.6201 57.0743 14.7415L57.8511 19.0142C60.6473 19.9319 62.6666 22.5635 62.6666 25.6667V32.1158C64.0986 33.3975 64.9999 35.2602 64.9999 37.3333V42C64.9999 44.0732 64.0986 45.9359 62.6666 47.2176V53.6667C62.6666 57.5328 59.5327 60.6667 55.6666 60.6667H18.3333C14.4673 60.6667 11.3333 57.5328 11.3333 53.6667V25.6667C11.3333 22.1972 13.8573 19.3173 17.1693 18.763L48.1416 9.29926ZM57.9999 44.3333C59.2886 44.3333 60.3333 43.2887 60.3333 42V37.3333C60.3333 36.0446 59.2886 35 57.9999 35H50.9999C49.7112 35 48.6666 36.0446 48.6666 37.3333V42C48.6666 43.2887 49.7112 44.3333 50.9999 44.3333H57.9999ZM57.9999 49V53.6667C57.9999 54.9554 56.9553 56 55.6666 56H18.3333C17.0446 56 15.9999 54.9554 15.9999 53.6667V25.6667C15.9999 24.378 17.0446 23.3333 18.3333 23.3333H55.6666C56.9499 23.3333 57.9911 24.3692 57.9999 25.6504V30.3333H50.9999C47.1338 30.3333 43.9999 33.4672 43.9999 37.3333V42C43.9999 45.8661 47.1338 49 50.9999 49H57.9999ZM52.6225 15.4164L53.1961 18.6667H32.3333L49.6541 13.587C50.9918 13.1858 52.3799 14.0413 52.6225 15.4164Z" fill="white"/>
</g>
<defs>
<filter id="filter0_d_124_2034" x="0.813965" y="0" width="72.186" height="76.6512" filterUnits="userSpaceOnUse" color-interpolation-filters="sRGB">
<feFlood flood-opacity="0" result="BackgroundImageFix"/>
<feColorMatrix in="SourceAlpha" type="matrix" values="0 0 0 0 0 0 0 0 0 0 0 0 0 0 0 0 0 0 127 0" result="hardAlpha"/>
<feOffset dy="3"/>
<feGaussianBlur stdDeviation="2"/>
<feComposite in2="hardAlpha" operator="out"/>
<feColorMatrix type="matrix" values="0 0 0 0 0.880833 0 0 0 0 0.432169 0 0 0 0 0.293611 0 0 0 0.15 0"/>
<feBlend mode="normal" in2="BackgroundImageFix" result="effect1_dropShadow_124_2034"/>
<feBlend mode="normal" in="SourceGraphic" in2="effect1_dropShadow_124_2034" result="shape"/>
</filter>
<clipPath id="clip0_124_2034">
<rect width="56" height="56" fill="white" transform="translate(9 7)"/>
</clipPath>
</defs>
</svg>
