<svg width="28" height="29" viewBox="0 0 28 29" fill="none" xmlns="http://www.w3.org/2000/svg">
<path d="M23.3332 14.5003H12.2498M20.9998 18.0003L24.4998 14.5003L20.9998 11.0003M15.1665 8.66699V7.50033C15.1665 6.88149 14.9207 6.28799 14.4831 5.85041C14.0455 5.41282 13.452 5.16699 12.8332 5.16699H6.99984C6.381 5.16699 5.78751 5.41282 5.34992 5.85041C4.91234 6.28799 4.6665 6.88149 4.6665 7.50033V21.5003C4.6665 22.1192 4.91234 22.7127 5.34992 23.1502C5.78751 23.5878 6.381 23.8337 6.99984 23.8337H12.8332C13.452 23.8337 14.0455 23.5878 14.4831 23.1502C14.9207 22.7127 15.1665 22.1192 15.1665 21.5003V20.3337" stroke="#FD4755" stroke-width="2" stroke-linecap="round" stroke-linejoin="round"/>
</svg>
