<svg width="170" height="88" viewBox="0 0 170 88" fill="none" xmlns="http://www.w3.org/2000/svg">
<mask id="mask0_418_1731" style="mask-type:luminance" maskUnits="userSpaceOnUse" x="0" y="0" width="170" height="88">
<path d="M0 0.000106812H169.999V87.3398H0V0.000106812Z" fill="white"/>
</mask>
<g mask="url(#mask0_418_1731)">
<path d="M15.709 45.7064C15.709 42.1868 15.7108 38.6674 15.7076 35.1478C15.7069 34.3311 15.8623 33.5459 16.1741 32.7954C16.8753 31.1082 18.2006 30.2665 19.9655 30.0304C20.9343 29.9008 21.9069 29.9134 22.8806 29.9407C23.3157 29.9528 23.5358 30.1603 23.5276 30.6012C23.5245 30.7696 23.5295 30.9382 23.5295 31.1067C23.5298 36.9664 23.5296 42.8262 23.5298 48.6859C23.5298 49.5666 23.5303 49.5689 24.387 49.5676C25.5951 49.5657 25.5327 49.6954 25.5361 48.4121C25.5472 44.2003 25.5648 39.9885 25.5781 35.7767C25.5807 34.9885 25.6376 34.2067 25.8307 33.4397C26.3412 31.4128 27.8155 30.1388 29.9018 30.0212C31.3772 29.9381 32.858 29.9354 34.3366 29.9281C37.0517 29.9147 39.7667 29.9232 42.4819 29.9252C43.1724 29.9256 43.2345 29.9841 43.2336 30.651C43.2249 37.8023 43.2248 44.9537 43.1956 52.105C43.1886 53.7964 42.7028 55.319 41.2887 56.4081C40.5353 56.9885 39.6519 57.2169 38.7317 57.3273C37.8749 57.43 37.013 57.4321 36.1516 57.396C35.4781 57.3677 35.3805 57.2661 35.3804 56.5893C35.3793 50.6359 35.3797 44.6827 35.3797 38.7294C35.3796 37.7708 35.3795 37.7708 34.4347 37.7706C33.3579 37.7704 33.359 37.7704 33.3576 38.8237C33.3522 43.0359 33.3467 47.2481 33.3392 51.4603C33.3379 52.2105 33.2764 52.9567 33.1173 53.6905C32.6413 55.8857 31.1168 57.2245 28.8698 57.3251C27.1127 57.4038 25.3514 57.4001 23.5919 57.4097C21.2325 57.4225 18.8729 57.4135 16.5135 57.4126C15.7099 57.4124 15.6811 57.3849 15.681 56.6019C15.6801 52.9701 15.6805 49.3382 15.6805 45.7064C15.6901 45.7064 15.6995 45.7064 15.709 45.7064Z" fill="#5C5D5F"/>
<path d="M127.295 43.789C127.295 42.2361 127.296 40.6833 127.294 39.1304C127.293 37.6631 127.426 37.8093 125.968 37.8063C125.168 37.8046 125.138 37.834 125.138 38.6201C125.137 41.8567 125.136 45.0933 125.138 48.33C125.139 49.9401 125.016 49.7275 126.554 49.7384C127.239 49.7433 127.293 49.6864 127.294 49.0088C127.296 47.2688 127.295 45.5289 127.295 43.789ZM117.536 45.7953C117.527 42.3522 117.558 38.9093 117.434 35.4666C117.364 33.5189 117.949 31.847 119.728 30.7831C120.569 30.2802 121.495 30.0467 122.46 30.0403C126.448 30.0136 130.435 30.0167 134.422 29.9993C135.011 29.9967 135.084 30.3561 135.084 30.8129C135.087 32.9089 135.106 35.0051 135.099 37.1011C135.085 41.1996 135.088 45.2985 135.018 49.396C134.992 50.9221 135.156 52.4647 134.753 53.9762C134.234 55.9232 132.675 57.259 130.668 57.3138C126.438 57.4296 122.207 57.3483 117.977 57.3663C117.506 57.3683 117.533 57.1174 117.533 56.8001C117.537 53.1319 117.536 49.4636 117.536 45.7953Z" fill="#5C5D5F"/>
<path d="M62.5664 41.6446C62.5664 45.108 62.56 48.5715 62.569 52.035C62.5737 53.8401 62.0217 55.3729 60.533 56.4975C59.6686 57.1506 58.693 57.3696 57.6349 57.3705C53.9086 57.3738 50.1822 57.3879 46.4558 57.3989C44.6917 57.4042 44.9073 57.5778 44.9019 55.8427C44.8959 53.9331 44.9104 52.0233 44.8927 50.1137C44.8889 49.7072 44.9925 49.5563 45.4254 49.5593C48.0468 49.578 50.6686 49.5699 53.2901 49.5711C53.3275 49.5711 53.365 49.5755 53.4024 49.576C54.6812 49.592 54.7398 49.5355 54.7398 48.2872C54.7398 44.992 54.7313 41.6968 54.7496 38.4018C54.7522 37.9334 54.6137 37.7888 54.1468 37.8002C52.4304 37.842 52.7344 37.62 52.7231 39.2303C52.7059 41.7203 52.7196 44.2105 52.718 46.7006C52.7174 47.5265 52.6112 47.6333 51.7746 47.6345C49.7895 47.6375 47.8045 47.6373 45.8194 47.6346C44.99 47.6335 44.9002 47.546 44.9012 46.7456C44.9059 42.8334 44.9003 38.921 44.923 35.0088C44.9407 31.9867 46.7894 30.0841 49.8056 30.0104C53.8117 29.9125 57.8191 29.9244 61.8261 29.9557C62.5153 29.9611 62.5772 30.0304 62.5777 30.748C62.5797 34.3802 62.5786 38.0124 62.5786 41.6446C62.5745 41.6446 62.5705 41.6446 62.5664 41.6446Z" fill="#5C5D5F"/>
<path d="M136.634 41.6483C136.634 37.997 136.633 34.3457 136.635 30.6944C136.635 30.0372 136.713 29.9598 137.383 29.9549C141.409 29.9253 145.436 29.9022 149.461 30.0142C151.436 30.0693 153 30.8867 153.86 32.7711C154.161 33.4296 154.276 34.1347 154.279 34.8458C154.298 38.8714 154.292 42.8972 154.307 46.923C154.309 47.4683 154.054 47.6422 153.548 47.6398C151.469 47.6293 149.39 47.6382 147.311 47.6336C146.602 47.632 146.477 47.5021 146.475 46.7621C146.471 44.0657 146.474 41.3693 146.474 38.6729C146.474 37.7959 146.473 37.7959 145.623 37.7953C144.437 37.7947 144.437 37.7947 144.437 38.9919C144.437 42.1751 144.437 45.3584 144.437 48.5417C144.437 49.4293 144.531 49.5548 145.428 49.5668C146.832 49.5854 148.237 49.5573 149.642 49.5564C151.028 49.5555 152.414 49.5759 153.799 49.5605C154.187 49.5562 154.322 49.6695 154.319 50.0683C154.303 52.2965 154.301 54.525 154.319 56.7531C154.323 57.2535 154.1 57.4163 153.645 57.4143C149.469 57.3955 145.292 57.421 141.117 57.3503C138.646 57.3086 136.725 55.2382 136.671 52.6015C136.606 49.5132 136.633 46.423 136.622 43.3336C136.62 42.7718 136.622 42.2101 136.622 41.6483C136.626 41.6483 136.63 41.6483 136.634 41.6483Z" fill="#5C5D5F"/>
<path d="M108.298 50.1391C108.298 44.9171 108.302 39.6952 108.296 34.4732C108.294 33.1346 108.541 31.9153 109.628 30.9858C110.521 30.2226 111.572 29.9639 112.697 29.9458C113.65 29.9307 114.605 30.0008 115.559 30.0044C115.934 30.0059 116.064 30.166 116.048 30.5103C116.042 30.6223 116.051 30.7348 116.051 30.8471C116.07 41.2729 116.089 51.6988 116.108 62.1246C116.109 62.9685 116.086 63.8088 115.797 64.6159C115.376 65.7912 114.581 66.5711 113.363 66.8916C111.9 67.2765 110.409 67.3262 108.905 67.2568C108.408 67.2338 108.222 67.0435 108.225 66.5359C108.247 62.9797 108.248 59.4233 108.252 55.8669C108.255 53.9576 108.253 52.0483 108.253 50.1391C108.268 50.1391 108.283 50.1391 108.298 50.1391Z" fill="#5C5D5F"/>
<path d="M94.1928 50.266C94.1928 45.0234 94.1947 39.7806 94.1914 34.538C94.1906 33.1852 94.4212 31.9343 95.5227 30.9874C96.3627 30.2653 97.3516 30.0026 98.42 29.9388C99.4697 29.8761 100.516 29.9759 101.563 30.0087C101.96 30.0212 101.945 30.2732 101.945 30.5468C101.946 32.1944 101.95 33.8421 101.954 35.4897C101.976 44.402 102 53.3142 102.02 62.2265C102.022 63.2039 101.956 64.1707 101.513 65.0727C100.974 66.1706 100.052 66.7466 98.8975 66.9924C97.5526 67.2789 96.1907 67.3246 94.8189 67.2656C94.2787 67.2423 94.1332 67.0205 94.1348 66.4995C94.1511 61.0884 94.1448 55.6771 94.1448 50.266C94.1609 50.266 94.1768 50.266 94.1928 50.266Z" fill="#5C5D5F"/>
<path d="M64.6244 45.4796C64.672 41.7917 64.5271 38.102 64.6939 34.4159C64.8003 32.0654 66.7099 30.1862 69.0679 29.9901C69.9297 29.9185 70.7878 29.943 71.6485 29.9399C72.2062 29.938 72.3971 30.1835 72.3979 30.7279C72.4013 33.3301 72.4436 35.9322 72.4492 38.5343C72.459 43.1028 72.4738 47.6716 72.445 52.2399C72.425 55.4174 70.5621 57.2429 67.2406 57.4049C66.588 57.4367 65.9309 57.365 65.2765 57.3779C64.7526 57.3882 64.6145 57.1488 64.6165 56.6578C64.6312 53.0815 64.6244 49.5052 64.6244 45.929V45.4796Z" fill="#5C5D5F"/>
<path d="M92.1355 41.5922C92.1355 45.1113 92.1413 48.6304 92.1338 52.1494C92.1271 55.2732 90.1534 57.2906 87.0446 57.3593C86.3149 57.3754 85.5842 57.3538 84.8543 57.3629C84.4255 57.3683 84.2398 57.1663 84.2463 56.7478C84.2559 56.1115 84.2583 55.4751 84.2592 54.8387C84.2677 48.2685 84.2636 41.6981 84.2895 35.1278C84.299 32.736 85.436 31.0615 87.4966 30.2664C88.2819 29.9633 89.1102 29.9699 89.9333 29.9557C90.4387 29.9469 90.9447 29.9656 91.4498 29.9515C91.976 29.9369 92.1711 30.1663 92.1679 30.6977C92.1504 33.5055 92.1597 36.3134 92.1597 39.1213V41.5922H92.1355Z" fill="#5C5D5F"/>
<path d="M74.523 45.1914V34.5765C74.523 32.5861 75.723 30.8935 77.6262 30.2498C78.9697 29.7954 80.3559 29.8602 81.7412 29.9906C82.0308 30.0178 82.1625 30.2119 82.2041 30.4743C82.2245 30.6023 82.2137 30.7356 82.2137 30.8667C82.214 37.9622 82.2116 45.0577 82.2161 52.1534C82.2169 53.3629 81.9922 54.4998 81.2282 55.4746C80.1914 56.7977 78.7613 57.2991 77.1448 57.3791C76.5469 57.4086 75.9468 57.4013 75.3477 57.3973C74.5677 57.3921 74.4231 57.2551 74.4268 56.4791C74.4383 54.0456 74.4637 51.6123 74.4771 49.1788C74.4844 47.8497 74.4784 46.5205 74.4784 45.1914C74.4933 45.1914 74.5082 45.1914 74.523 45.1914Z" fill="#5C5D5F"/>
<path d="M88.1898 27.9009C86.0048 27.899 84.2655 26.1599 84.2673 23.9789C84.2691 21.8072 86.0278 20.0503 88.1982 20.0519C90.3621 20.0536 92.1269 21.8226 92.124 23.9873C92.1211 26.1596 90.3688 27.9028 88.1898 27.9009Z" fill="#F6501A"/>
<path d="M78.2877 27.8974C76.1288 27.8695 74.3991 26.1203 74.4166 23.9827C74.4346 21.7892 76.2146 20.0831 78.4494 20.1172C80.5768 20.1497 82.263 21.9342 82.2271 24.1151C82.1923 26.2174 80.414 27.9248 78.2877 27.8974Z" fill="#F6501A"/>
<path d="M33.3474 63.3212C33.3445 65.4634 31.595 67.2079 29.4468 67.2107C27.3034 67.2135 25.5435 65.465 25.5381 63.3275C25.5327 61.1674 27.3139 59.387 29.4706 59.3966C31.596 59.4062 33.3503 61.1822 33.3474 63.3212Z" fill="#F6501A"/>
<path d="M72.3677 23.9768C72.3704 26.1991 70.6929 27.8889 68.4854 27.8875C66.3369 27.886 64.6015 26.1513 64.6018 24.0055C64.6021 21.8511 66.3263 20.1269 68.482 20.1256C70.6662 20.1242 72.365 21.8078 72.3677 23.9768Z" fill="#AABED1"/>
<path d="M19.645 59.4483C21.6627 59.3209 23.5496 61.2382 23.4895 63.3361C23.4281 65.4785 21.7237 67.2162 19.5763 67.2067C17.4622 67.1975 15.7037 65.4147 15.7164 63.2768C15.7289 61.1576 17.5893 59.3104 19.645 59.4483Z" fill="#AABED1"/>
<path d="M46.5088 63.7142C46.5089 62.8909 46.5267 62.0668 46.5015 61.2442C46.4886 60.8241 46.7131 60.8073 47.0287 60.8055C47.3416 60.8037 47.5225 60.8651 47.5059 61.2368C47.4815 61.7784 47.5122 62.3223 47.4952 62.8645C47.4854 63.1726 47.5877 63.3085 47.9089 63.3015C48.5451 63.2877 49.1818 63.2906 49.8181 63.2996C50.1084 63.3036 50.2146 63.1793 50.2084 62.8945C50.1962 62.3333 50.2223 61.7711 50.2005 61.2105C50.1852 60.8142 50.4157 60.8098 50.7035 60.807C51.0009 60.804 51.1984 60.8328 51.1947 61.2203C51.1785 62.8855 51.1802 64.5511 51.1929 66.2164C51.1962 66.6425 50.9439 66.6294 50.642 66.6431C50.2865 66.6592 50.1884 66.5044 50.2005 66.175C50.2195 65.6517 50.1915 65.1267 50.2101 64.6034C50.2224 64.2585 50.0825 64.1408 49.7476 64.1503C49.1494 64.167 48.5497 64.1686 47.9515 64.1491C47.6168 64.1384 47.4781 64.244 47.4938 64.5953C47.5172 65.1182 47.4789 65.644 47.5068 66.1666C47.5269 66.5468 47.3754 66.6523 47.018 66.6449C46.6864 66.6382 46.4906 66.5851 46.5018 66.1843C46.5249 65.3616 46.5087 64.5376 46.5088 63.7142Z" fill="#F6501A"/>
<path d="M77.4099 66.6672C76.0569 66.6894 75.1809 66.0372 74.6841 64.9343C74.1741 63.8018 74.3454 62.6991 75.1742 61.7416C76.0166 60.7685 77.0934 60.5964 78.2892 60.8725C78.8963 61.0127 79.3938 61.3306 79.7508 61.8399C79.8721 62.0129 80.1215 62.1979 79.9937 62.4225C79.8859 62.6118 79.614 62.4906 79.4157 62.5125C79.1333 62.5438 78.9222 62.4336 78.7268 62.2224C77.9795 61.4144 76.6786 61.4379 75.955 62.2577C75.417 62.8672 75.307 64.0097 75.7102 64.7997C76.0915 65.5467 76.7822 65.8743 77.7358 65.784C78.092 65.7503 78.3772 65.597 78.6266 65.359C78.7208 65.2691 78.7909 65.1527 78.8894 65.0688C79.1184 64.8737 79.9324 64.7968 79.9905 64.9749C80.0972 65.3026 79.8222 65.523 79.6462 65.7406C79.1357 66.3721 78.3508 66.6704 77.4099 66.6672Z" fill="#F6501A"/>
<path d="M85.3998 66.6887C84.6887 66.6592 83.9794 66.4767 83.5974 65.7031C83.4925 65.4907 83.2642 65.1411 83.5847 65.0328C83.8736 64.9351 84.3104 64.7825 84.5594 65.2673C84.8449 65.8238 85.4111 65.9938 85.9808 65.7534C86.2791 65.6276 86.4735 65.4129 86.5004 65.0816C86.5264 64.762 86.3518 64.5372 86.0845 64.4104C85.7825 64.2669 85.4599 64.1662 85.1445 64.0519C84.864 63.9503 84.5731 63.8735 84.301 63.7539C83.7273 63.5017 83.4549 63.0165 83.4315 62.4207C83.4088 61.8377 83.6811 61.3809 84.201 61.085C84.8735 60.7023 85.5777 60.6359 86.3097 60.8715C86.6377 60.977 86.9364 61.1601 87.1127 61.4526C87.2609 61.6983 87.6197 62.0499 87.2979 62.2607C87.0215 62.4417 86.5154 62.4799 86.2469 62.0638C86.0002 61.6817 85.6511 61.5625 85.2369 61.6085C84.8582 61.6504 84.5486 61.8339 84.4798 62.2425C84.4088 62.664 84.6518 62.9071 85.0257 63.0412C85.4652 63.199 85.9109 63.3402 86.345 63.5114C87.2059 63.8508 87.589 64.4044 87.5001 65.1466C87.4055 65.935 86.7779 66.5378 85.9194 66.6574C85.7718 66.6779 85.6211 66.6761 85.3998 66.6887Z" fill="#F6501A"/>
<path d="M64.1622 66.6885C63.4607 66.6568 62.748 66.4731 62.3705 65.6982C62.2702 65.492 62.0585 65.1357 62.382 65.0281C62.6584 64.9362 63.0709 64.8044 63.3178 65.2438C63.6443 65.8252 64.1434 65.9847 64.7342 65.7621C65.0404 65.6467 65.2421 65.448 65.2743 65.1121C65.305 64.7942 65.1401 64.5784 64.8834 64.4217C64.593 64.2444 64.2704 64.1492 63.9467 64.0524C63.6251 63.9563 63.295 63.8666 62.9975 63.7168C62.4889 63.4605 62.2262 63.0042 62.205 62.4467C62.1837 61.8891 62.4124 61.4248 62.903 61.1243C63.5807 60.709 64.3056 60.6311 65.0608 60.8661C65.4091 60.9745 65.7132 61.1744 65.9074 61.4823C66.056 61.7179 66.3116 61.9798 66.0913 62.2795C65.9557 62.4638 65.1931 62.3094 65.0296 62.0686C64.7491 61.6554 64.3589 61.5339 63.906 61.6239C63.5589 61.6928 63.2842 61.893 63.2441 62.2893C63.2058 62.6667 63.415 62.8868 63.7427 63.0102C64.1624 63.1684 64.589 63.3085 65.0086 63.467C66.0178 63.8481 66.3978 64.3963 66.2568 65.2532C66.1273 66.0399 65.406 66.612 64.4687 66.6713C64.3941 66.676 64.3193 66.6797 64.1622 66.6885Z" fill="#F6501A"/>
<path d="M39.9137 62.5655C40.0707 62.842 39.5549 63.485 40.4103 63.4902C41.5441 63.4973 42.0173 63.2488 42.0273 62.5667C42.0362 61.971 41.6301 61.6158 40.8925 61.6196C39.8199 61.6251 39.9783 61.4584 39.9137 62.5655ZM38.962 63.7363C38.9621 62.9139 38.9731 62.0915 38.9568 61.2695C38.9502 60.9341 39.0633 60.7953 39.4076 60.8073C40.0238 60.829 40.6422 60.7991 41.2572 60.8341C42.2699 60.8916 42.9742 61.5249 43.0214 62.3765C43.0788 63.4099 42.5753 64.0247 41.4907 64.2355C41.3081 64.271 41.1209 64.2891 40.9348 64.2992C39.9532 64.3527 39.9532 64.3509 39.9532 65.3627C39.9531 65.6056 39.9361 65.85 39.9569 66.0912C39.9916 66.4936 39.8499 66.6571 39.4215 66.6599C38.9721 66.6629 38.9532 66.4256 38.9582 66.0909C38.9699 65.3062 38.962 64.5211 38.962 63.7363Z" fill="#F6501A"/>
<path d="M56.7138 63.6018C57.1126 62.7539 57.4505 62.0296 57.7946 61.308C57.8818 61.1254 57.9461 60.8918 58.1684 60.8462C58.4381 60.7906 58.7816 60.6983 58.9744 60.8927C59.1401 61.0597 58.8762 61.2949 58.7816 61.486C58.4915 62.0724 58.207 62.6646 57.8708 63.2247C57.3435 64.1031 57.0562 65.0201 57.2249 66.0524C57.3124 66.5872 57.0123 66.6895 56.5595 66.6446C56.328 66.6218 56.1858 66.5291 56.2264 66.3018C56.5228 64.6391 55.5831 63.3662 54.8896 62.0154C54.7529 61.7492 54.612 61.4851 54.4688 61.2224C54.3109 60.9326 54.3997 60.8349 54.7221 60.8142C55.1653 60.7858 55.4527 60.9049 55.6393 61.3501C55.9419 62.0717 56.3104 62.7658 56.7138 63.6018Z" fill="#F6501A"/>
<path d="M70.8855 63.7239C70.8855 64.5278 70.8677 65.3323 70.8931 66.1355C70.9057 66.5343 70.7621 66.6522 70.3748 66.6476C70.0153 66.6434 69.8778 66.5384 69.8812 66.1659C69.8956 64.5395 69.8981 62.9128 69.8802 61.2864C69.8755 60.8556 70.087 60.8141 70.4359 60.802C70.8364 60.7879 70.8974 60.9762 70.8906 61.3122C70.8744 62.1158 70.8855 62.92 70.8855 63.7239Z" fill="#F6501A"/>
</g>
</svg>
