<svg width="21" height="23" viewBox="0 0 21 23" fill="none" xmlns="http://www.w3.org/2000/svg">
<path d="M9.58757 22.2388C11.2477 22.2388 12.6365 21.0553 12.9554 19.4888H6.21973C6.5388 21.0553 7.92757 22.2388 9.58757 22.2388Z" fill="#5C5D5F"/>
<path d="M18.2307 17.1993L18.2307 17.1991C18.3156 16.79 18.1722 16.3839 17.8519 16.1145C16.5278 15.0045 15.7183 13.4203 15.5466 11.7238C11.9456 11.4875 9.08759 8.48276 9.08759 4.82214C9.08759 4.03341 9.22392 3.27761 9.46935 2.5733C6.25631 2.63629 3.67098 5.2605 3.67098 8.48875V11.0444C3.67098 13.0057 2.81139 14.8572 1.30577 16.1306C0.987154 16.4033 0.844578 16.837 0.960329 17.2653L18.2307 17.1993ZM18.2307 17.1993C18.1284 17.6932 17.6312 18.0721 17.0447 18.0721H2.12597C1.56681 18.0721 1.08581 17.7283 0.960379 17.2655L18.2307 17.1993Z" fill="#5C5D5F" stroke="#5C5D5F"/>
<path d="M20.5181 4.73873C20.5181 7.22402 18.5034 9.23865 16.018 9.23865C13.5327 9.23865 11.5181 7.22402 11.5181 4.73873C11.5181 2.25344 13.5327 0.238647 16.018 0.238647C18.5034 0.238647 20.5181 2.25344 20.5181 4.73873Z" fill="#5C5D5F"/>
</svg>
