<svg width="18" height="18" viewBox="0 0 18 18" fill="none" xmlns="http://www.w3.org/2000/svg">
<path fill-rule="evenodd" clip-rule="evenodd" d="M2.7 0H15.3C16.83 0 18 1.17 18 2.7V15.3C18 16.83 16.83 18 15.3 18H2.7C1.17 18 0 16.83 0 15.3V2.7C0 1.17 1.17 0 2.7 0ZM15.3001 1.79997H2.70006C2.16006 1.79997 1.80006 2.15997 1.80006 2.69997V5.39997H16.2001V2.69997C16.2001 2.15997 15.8401 1.79997 15.3001 1.79997ZM1.80006 15.2999V7.19994H5.40006V16.1999H2.70006C2.16006 16.1999 1.80006 15.8399 1.80006 15.2999ZM7.20003 16.1999H15.3C15.84 16.1999 16.2 15.8399 16.2 15.2999V7.19994H7.20003V16.1999Z" fill="#F16437"/>
</svg>
