<svg width="24" height="24" viewBox="0 0 24 24" fill="none" xmlns="http://www.w3.org/2000/svg">
<path fill-rule="evenodd" clip-rule="evenodd" d="M22.2322 6.6455C21.7261 8.6656 20.2992 12.8011 16.5501 16.5502C12.801 20.2993 8.66553 21.7262 6.64544 22.2323C5.48453 22.5232 4.36428 21.9994 3.72991 21.1113L2.06687 18.7831C1.09382 17.4208 1.42401 15.5257 2.80045 14.5728L4.9177 13.107C5.81644 12.4848 7.04824 12.6994 7.68359 13.5889L8.51843 14.7577C9.19504 14.5808 10.5845 14.0306 12.3075 12.3076C14.0305 10.5846 14.5806 9.1951 14.7575 8.5185L13.5887 7.6837C12.6993 7.0483 12.4846 5.8165 13.1068 4.9178L14.5726 2.8005C15.5256 1.4241 17.4206 1.0939 18.7829 2.067L21.1112 3.73C21.9993 4.3644 22.5231 5.4846 22.2322 6.6455ZM15.1359 15.136C18.5453 11.7266 19.84 7.9642 20.2922 6.1595C20.3582 5.8957 20.2557 5.5768 19.9487 5.3575L17.6204 3.6944C17.1664 3.3701 16.5347 3.4801 16.217 3.939L14.7512 6.0562L16.0055 6.9521C16.5181 7.3182 16.9201 7.9953 16.75 8.7837C16.5377 9.7677 15.8568 11.5867 13.7217 13.7218C11.5866 15.8569 9.76764 16.5378 8.78364 16.7501C7.99524 16.9202 7.31815 16.5182 6.95202 16.0056L6.05612 14.7514L3.93887 16.2171C3.48005 16.5348 3.36999 17.1665 3.69434 17.6206L5.35738 19.9488C5.57669 20.2559 5.89559 20.3584 6.15937 20.2923C7.96412 19.8401 11.7265 18.5454 15.1359 15.136Z" fill="#F16437"/>
</svg>
