<svg width="40" height="40" viewBox="0 0 40 40" fill="none" xmlns="http://www.w3.org/2000/svg">
<rect width="40" height="40" rx="10" fill="#28C76F" fill-opacity="0.2"/>
<path d="M20 9.5C22.7848 9.5 25.4555 10.6062 27.4246 12.5754C29.3938 14.5445 30.5 17.2152 30.5 20C30.5 22.7848 29.3938 25.4555 27.4246 27.4246C25.4555 29.3938 22.7848 30.5 20 30.5C17.2152 30.5 14.5445 29.3938 12.5754 27.4246C10.6062 25.4555 9.5 22.7848 9.5 20C9.5 17.2152 10.6062 14.5445 12.5754 12.5754C14.5445 10.6062 17.2152 9.5 20 9.5ZM20.5565 13.988C19.3355 13.988 18.3785 14.3345 17.669 15.0275C16.943 15.7205 16.5965 16.6775 16.5965 17.8985H18.4775C18.4775 17.2055 18.6095 16.661 18.89 16.2815C19.2035 15.8195 19.715 15.605 20.441 15.605C21.002 15.605 21.4475 15.7535 21.761 16.067C22.058 16.3805 22.223 16.8095 22.223 17.354C22.223 17.7665 22.0745 18.1625 21.7775 18.5255L21.5795 18.7565C20.507 19.7135 19.8635 20.4065 19.649 20.852C19.418 21.2975 19.319 21.842 19.319 22.469V22.7H21.2165V22.469C21.2165 22.073 21.299 21.7265 21.464 21.3965C21.6125 21.0995 21.827 20.819 22.124 20.5715C22.916 19.8785 23.3945 19.433 23.543 19.268C23.939 18.74 24.1535 18.0635 24.1535 17.2385C24.1535 16.232 23.8235 15.44 23.1635 14.8625C22.5035 14.2685 21.629 13.988 20.5565 13.988ZM20.2595 23.5085C19.9231 23.4994 19.5967 23.624 19.352 23.855C19.2312 23.9688 19.1362 24.1073 19.0736 24.261C19.011 24.4147 18.9821 24.5801 18.989 24.746C18.989 25.109 19.1045 25.406 19.352 25.637C19.5949 25.8728 19.921 26.0032 20.2595 26C20.6225 26 20.9195 25.8845 21.167 25.6535C21.2904 25.5373 21.388 25.3965 21.4533 25.2401C21.5187 25.0838 21.5505 24.9154 21.5465 24.746C21.5497 24.5806 21.5191 24.4163 21.4567 24.2631C21.3943 24.11 21.3013 23.9711 21.1835 23.855C20.9324 23.6236 20.6009 23.4992 20.2595 23.5085Z" fill="#28C76F"/>
</svg>
