<svg width="159" height="146" viewBox="0 0 159 146" fill="none" xmlns="http://www.w3.org/2000/svg">
<g opacity="0.22">
<g clip-path="url(#clip0_1_339)">
<path d="M6.97961 83.8028C6.97961 85.738 5.42099 87.3027 3.49322 87.3027C1.56546 87.3027 0 85.738 0 83.8028C0 81.8676 1.55862 80.303 3.48638 80.303C5.41415 80.303 6.97961 81.8676 6.97961 83.8028Z" fill="black"/>
<path d="M25.1075 87.3027C27.033 87.3027 28.5939 85.7357 28.5939 83.8028C28.5939 81.8699 27.033 80.303 25.1075 80.303C23.182 80.303 21.6211 81.8699 21.6211 83.8028C21.6211 85.7357 23.182 87.3027 25.1075 87.3027Z" fill="black"/>
<path d="M46.7325 87.3027C48.658 87.3027 50.2189 85.7357 50.2189 83.8028C50.2189 81.8699 48.658 80.303 46.7325 80.303C44.807 80.303 43.2461 81.8699 43.2461 83.8028C43.2461 85.7357 44.807 87.3027 46.7325 87.3027Z" fill="black"/>
<path d="M71.8321 83.8028C71.8321 85.738 70.2735 87.3027 68.3458 87.3027C66.418 87.3027 64.8594 85.738 64.8594 83.8028C64.8594 81.8676 66.418 80.303 68.3458 80.303C70.2735 80.303 71.8321 81.8676 71.8321 83.8028Z" fill="black"/>
<path d="M6.97961 103.237C6.97961 105.172 5.42099 106.737 3.49322 106.737C1.56546 106.737 0 105.172 0 103.237C0 101.302 1.55862 99.7374 3.48638 99.7374C5.41415 99.7374 6.97961 101.302 6.97961 103.237Z" fill="black"/>
<path d="M25.1075 106.737C27.033 106.737 28.5939 105.17 28.5939 103.237C28.5939 101.304 27.033 99.7374 25.1075 99.7374C23.182 99.7374 21.6211 101.304 21.6211 103.237C21.6211 105.17 23.182 106.737 25.1075 106.737Z" fill="black"/>
<path d="M46.7325 106.737C48.658 106.737 50.2189 105.17 50.2189 103.237C50.2189 101.304 48.658 99.7374 46.7325 99.7374C44.807 99.7374 43.2461 101.304 43.2461 103.237C43.2461 105.17 44.807 106.737 46.7325 106.737Z" fill="black"/>
<path d="M71.8321 103.237C71.8321 105.172 70.2735 106.737 68.3458 106.737C66.418 106.737 64.8594 105.172 64.8594 103.237C64.8594 101.302 66.418 99.7374 68.3458 99.7374C70.2735 99.7374 71.8321 101.302 71.8321 103.237Z" fill="black"/>
<path d="M6.97961 122.672C6.97961 124.607 5.42099 126.171 3.49322 126.171C1.56546 126.171 0 124.607 0 122.672C0 120.736 1.55862 119.172 3.48638 119.172C5.41415 119.172 6.97961 120.736 6.97961 122.672Z" fill="black"/>
<path d="M25.1075 126.171C27.033 126.171 28.5939 124.605 28.5939 122.672C28.5939 120.739 27.033 119.172 25.1075 119.172C23.182 119.172 21.6211 120.739 21.6211 122.672C21.6211 124.605 23.182 126.171 25.1075 126.171Z" fill="black"/>
<path d="M46.7325 126.171C48.658 126.171 50.2189 124.605 50.2189 122.672C50.2189 120.739 48.658 119.172 46.7325 119.172C44.807 119.172 43.2461 120.739 43.2461 122.672C43.2461 124.605 44.807 126.171 46.7325 126.171Z" fill="black"/>
<path d="M71.8321 122.672C71.8321 124.607 70.2735 126.171 68.3458 126.171C66.418 126.171 64.8594 124.607 64.8594 122.672C64.8594 120.736 66.418 119.172 68.3458 119.172C70.2735 119.172 71.8321 120.736 71.8321 122.672Z" fill="black"/>
<path d="M6.97961 142.106C6.97961 144.041 5.42099 145.606 3.49322 145.606C1.56546 145.606 0 144.034 0 142.106C0 140.178 1.55862 138.606 3.48638 138.606C5.41415 138.606 6.97961 140.171 6.97961 142.106Z" fill="black"/>
<path d="M25.1075 145.606C27.033 145.606 28.5939 144.039 28.5939 142.106C28.5939 140.173 27.033 138.606 25.1075 138.606C23.182 138.606 21.6211 140.173 21.6211 142.106C21.6211 144.039 23.182 145.606 25.1075 145.606Z" fill="black"/>
<path d="M46.7325 145.606C48.658 145.606 50.2189 144.039 50.2189 142.106C50.2189 140.173 48.658 138.606 46.7325 138.606C44.807 138.606 43.2461 140.173 43.2461 142.106C43.2461 144.039 44.807 145.606 46.7325 145.606Z" fill="black"/>
<path d="M71.8321 142.106C71.8321 144.041 70.2735 145.606 68.3458 145.606C66.418 145.606 64.8594 144.041 64.8594 142.106C64.8594 140.171 66.418 138.606 68.3458 138.606C70.2735 138.606 71.8321 140.171 71.8321 142.106Z" fill="black"/>
</g>
<g clip-path="url(#clip1_1_339)">
<path d="M6.97961 3.49984C6.97961 5.43505 5.42099 6.99968 3.49322 6.99968C1.56546 6.99968 0 5.43505 0 3.49984C0 1.56463 1.55862 0 3.48638 0C5.41415 0 6.97961 1.56463 6.97961 3.49984Z" fill="black"/>
<path d="M25.1075 6.99968C27.033 6.99968 28.5939 5.43275 28.5939 3.49984C28.5939 1.56693 27.033 0 25.1075 0C23.182 0 21.6211 1.56693 21.6211 3.49984C21.6211 5.43275 23.182 6.99968 25.1075 6.99968Z" fill="black"/>
<path d="M46.7325 6.99968C48.658 6.99968 50.2189 5.43275 50.2189 3.49984C50.2189 1.56693 48.658 0 46.7325 0C44.807 0 43.2461 1.56693 43.2461 3.49984C43.2461 5.43275 44.807 6.99968 46.7325 6.99968Z" fill="black"/>
<path d="M71.8321 3.49984C71.8321 5.43505 70.2735 6.99968 68.3458 6.99968C66.418 6.99968 64.8594 5.43505 64.8594 3.49984C64.8594 1.56463 66.418 0 68.3458 0C70.2735 0 71.8321 1.56463 71.8321 3.49984Z" fill="black"/>
<path d="M6.97961 22.9343C6.97961 24.8695 5.42099 26.4341 3.49322 26.4341C1.56546 26.4341 0 24.8695 0 22.9343C0 20.9991 1.55862 19.4344 3.48638 19.4344C5.41415 19.4344 6.97961 20.9991 6.97961 22.9343Z" fill="black"/>
<path d="M25.1075 26.4341C27.033 26.4341 28.5939 24.8672 28.5939 22.9343C28.5939 21.0014 27.033 19.4344 25.1075 19.4344C23.182 19.4344 21.6211 21.0014 21.6211 22.9343C21.6211 24.8672 23.182 26.4341 25.1075 26.4341Z" fill="black"/>
<path d="M46.7325 26.4341C48.658 26.4341 50.2189 24.8672 50.2189 22.9343C50.2189 21.0014 48.658 19.4344 46.7325 19.4344C44.807 19.4344 43.2461 21.0014 43.2461 22.9343C43.2461 24.8672 44.807 26.4341 46.7325 26.4341Z" fill="black"/>
<path d="M71.8321 22.9343C71.8321 24.8695 70.2735 26.4341 68.3458 26.4341C66.418 26.4341 64.8594 24.8695 64.8594 22.9343C64.8594 20.9991 66.418 19.4344 68.3458 19.4344C70.2735 19.4344 71.8321 20.9991 71.8321 22.9343Z" fill="black"/>
<path d="M6.97961 42.3686C6.97961 44.3038 5.42099 45.8685 3.49322 45.8685C1.56546 45.8685 0 44.3038 0 42.3686C0 40.4334 1.55862 38.8688 3.48638 38.8688C5.41415 38.8688 6.97961 40.4334 6.97961 42.3686Z" fill="black"/>
<path d="M25.1075 45.8685C27.033 45.8685 28.5939 44.3015 28.5939 42.3686C28.5939 40.4357 27.033 38.8688 25.1075 38.8688C23.182 38.8688 21.6211 40.4357 21.6211 42.3686C21.6211 44.3015 23.182 45.8685 25.1075 45.8685Z" fill="black"/>
<path d="M46.7325 45.8685C48.658 45.8685 50.2189 44.3015 50.2189 42.3686C50.2189 40.4357 48.658 38.8688 46.7325 38.8688C44.807 38.8688 43.2461 40.4357 43.2461 42.3686C43.2461 44.3015 44.807 45.8685 46.7325 45.8685Z" fill="black"/>
<path d="M71.8321 42.3686C71.8321 44.3038 70.2735 45.8685 68.3458 45.8685C66.418 45.8685 64.8594 44.3038 64.8594 42.3686C64.8594 40.4334 66.418 38.8688 68.3458 38.8688C70.2735 38.8688 71.8321 40.4334 71.8321 42.3686Z" fill="black"/>
<path d="M6.97961 61.8031C6.97961 63.7383 5.42099 65.3029 3.49322 65.3029C1.56546 65.3029 0 63.7314 0 61.8031C0 59.8747 1.55862 58.3032 3.48638 58.3032C5.41415 58.3032 6.97961 59.8679 6.97961 61.8031Z" fill="black"/>
<path d="M25.1075 65.3029C27.033 65.3029 28.5939 63.736 28.5939 61.8031C28.5939 59.8702 27.033 58.3032 25.1075 58.3032C23.182 58.3032 21.6211 59.8702 21.6211 61.8031C21.6211 63.736 23.182 65.3029 25.1075 65.3029Z" fill="black"/>
<path d="M46.7325 65.3029C48.658 65.3029 50.2189 63.736 50.2189 61.8031C50.2189 59.8702 48.658 58.3032 46.7325 58.3032C44.807 58.3032 43.2461 59.8702 43.2461 61.8031C43.2461 63.736 44.807 65.3029 46.7325 65.3029Z" fill="black"/>
<path d="M71.8321 61.8031C71.8321 63.7383 70.2735 65.3029 68.3458 65.3029C66.418 65.3029 64.8594 63.7383 64.8594 61.8031C64.8594 59.8679 66.418 58.3032 68.3458 58.3032C70.2735 58.3032 71.8321 59.8679 71.8321 61.8031Z" fill="black"/>
</g>
<g clip-path="url(#clip2_1_339)">
<path d="M93.8116 83.8026C93.8116 85.7378 92.253 87.3024 90.3253 87.3024C88.3975 87.3024 86.832 85.7378 86.832 83.8026C86.832 81.8674 88.3907 80.3027 90.3184 80.3027C92.2462 80.3027 93.8116 81.8674 93.8116 83.8026Z" fill="black"/>
<path d="M111.94 87.3024C113.865 87.3024 115.426 85.7355 115.426 83.8026C115.426 81.8697 113.865 80.3027 111.94 80.3027C110.014 80.3027 108.453 81.8697 108.453 83.8026C108.453 85.7355 110.014 87.3024 111.94 87.3024Z" fill="black"/>
<path d="M133.565 87.3024C135.49 87.3024 137.051 85.7355 137.051 83.8026C137.051 81.8697 135.49 80.3027 133.565 80.3027C131.639 80.3027 130.078 81.8697 130.078 83.8026C130.078 85.7355 131.639 87.3024 133.565 87.3024Z" fill="black"/>
<path d="M158.664 83.8026C158.664 85.7378 157.106 87.3024 155.178 87.3024C153.25 87.3024 151.691 85.7378 151.691 83.8026C151.691 81.8674 153.25 80.3027 155.178 80.3027C157.106 80.3027 158.664 81.8674 158.664 83.8026Z" fill="black"/>
<path d="M93.8116 103.237C93.8116 105.172 92.253 106.737 90.3253 106.737C88.3975 106.737 86.832 105.172 86.832 103.237C86.832 101.302 88.3907 99.7371 90.3184 99.7371C92.2462 99.7371 93.8116 101.302 93.8116 103.237Z" fill="black"/>
<path d="M111.94 106.737C113.865 106.737 115.426 105.17 115.426 103.237C115.426 101.304 113.865 99.7371 111.94 99.7371C110.014 99.7371 108.453 101.304 108.453 103.237C108.453 105.17 110.014 106.737 111.94 106.737Z" fill="black"/>
<path d="M133.565 106.737C135.49 106.737 137.051 105.17 137.051 103.237C137.051 101.304 135.49 99.7371 133.565 99.7371C131.639 99.7371 130.078 101.304 130.078 103.237C130.078 105.17 131.639 106.737 133.565 106.737Z" fill="black"/>
<path d="M158.664 103.237C158.664 105.172 157.106 106.737 155.178 106.737C153.25 106.737 151.691 105.172 151.691 103.237C151.691 101.302 153.25 99.7371 155.178 99.7371C157.106 99.7371 158.664 101.302 158.664 103.237Z" fill="black"/>
<path d="M93.8116 122.671C93.8116 124.607 92.253 126.171 90.3253 126.171C88.3975 126.171 86.832 124.607 86.832 122.671C86.832 120.736 88.3907 119.172 90.3184 119.172C92.2462 119.172 93.8116 120.736 93.8116 122.671Z" fill="black"/>
<path d="M111.94 126.171C113.865 126.171 115.426 124.604 115.426 122.671C115.426 120.738 113.865 119.172 111.94 119.172C110.014 119.172 108.453 120.738 108.453 122.671C108.453 124.604 110.014 126.171 111.94 126.171Z" fill="black"/>
<path d="M133.565 126.171C135.49 126.171 137.051 124.604 137.051 122.671C137.051 120.738 135.49 119.172 133.565 119.172C131.639 119.172 130.078 120.738 130.078 122.671C130.078 124.604 131.639 126.171 133.565 126.171Z" fill="black"/>
<path d="M158.664 122.671C158.664 124.607 157.106 126.171 155.178 126.171C153.25 126.171 151.691 124.607 151.691 122.671C151.691 120.736 153.25 119.172 155.178 119.172C157.106 119.172 158.664 120.736 158.664 122.671Z" fill="black"/>
<path d="M93.8116 142.106C93.8116 144.041 92.253 145.606 90.3253 145.606C88.3975 145.606 86.832 144.034 86.832 142.106C86.832 140.177 88.3907 138.606 90.3184 138.606C92.2462 138.606 93.8116 140.171 93.8116 142.106Z" fill="black"/>
<path d="M111.94 145.606C113.865 145.606 115.426 144.039 115.426 142.106C115.426 140.173 113.865 138.606 111.94 138.606C110.014 138.606 108.453 140.173 108.453 142.106C108.453 144.039 110.014 145.606 111.94 145.606Z" fill="black"/>
<path d="M133.565 145.606C135.49 145.606 137.051 144.039 137.051 142.106C137.051 140.173 135.49 138.606 133.565 138.606C131.639 138.606 130.078 140.173 130.078 142.106C130.078 144.039 131.639 145.606 133.565 145.606Z" fill="black"/>
<path d="M158.664 142.106C158.664 144.041 157.106 145.606 155.178 145.606C153.25 145.606 151.691 144.041 151.691 142.106C151.691 140.171 153.25 138.606 155.178 138.606C157.106 138.606 158.664 140.171 158.664 142.106Z" fill="black"/>
</g>
<g clip-path="url(#clip3_1_339)">
<path d="M93.8116 3.49984C93.8116 5.43505 92.253 6.99968 90.3253 6.99968C88.3975 6.99968 86.832 5.43505 86.832 3.49984C86.832 1.56463 88.3907 0 90.3184 0C92.2462 0 93.8116 1.56463 93.8116 3.49984Z" fill="black"/>
<path d="M111.94 6.99968C113.865 6.99968 115.426 5.43275 115.426 3.49984C115.426 1.56693 113.865 0 111.94 0C110.014 0 108.453 1.56693 108.453 3.49984C108.453 5.43275 110.014 6.99968 111.94 6.99968Z" fill="black"/>
<path d="M133.565 6.99968C135.49 6.99968 137.051 5.43275 137.051 3.49984C137.051 1.56693 135.49 0 133.565 0C131.639 0 130.078 1.56693 130.078 3.49984C130.078 5.43275 131.639 6.99968 133.565 6.99968Z" fill="black"/>
<path d="M158.664 3.49984C158.664 5.43505 157.106 6.99968 155.178 6.99968C153.25 6.99968 151.691 5.43505 151.691 3.49984C151.691 1.56463 153.25 0 155.178 0C157.106 0 158.664 1.56463 158.664 3.49984Z" fill="black"/>
<path d="M93.8116 22.9343C93.8116 24.8695 92.253 26.4341 90.3253 26.4341C88.3975 26.4341 86.832 24.8695 86.832 22.9343C86.832 20.9991 88.3907 19.4344 90.3184 19.4344C92.2462 19.4344 93.8116 20.9991 93.8116 22.9343Z" fill="black"/>
<path d="M111.94 26.4341C113.865 26.4341 115.426 24.8672 115.426 22.9343C115.426 21.0014 113.865 19.4344 111.94 19.4344C110.014 19.4344 108.453 21.0014 108.453 22.9343C108.453 24.8672 110.014 26.4341 111.94 26.4341Z" fill="black"/>
<path d="M133.565 26.4341C135.49 26.4341 137.051 24.8672 137.051 22.9343C137.051 21.0014 135.49 19.4344 133.565 19.4344C131.639 19.4344 130.078 21.0014 130.078 22.9343C130.078 24.8672 131.639 26.4341 133.565 26.4341Z" fill="black"/>
<path d="M158.664 22.9343C158.664 24.8695 157.106 26.4341 155.178 26.4341C153.25 26.4341 151.691 24.8695 151.691 22.9343C151.691 20.9991 153.25 19.4344 155.178 19.4344C157.106 19.4344 158.664 20.9991 158.664 22.9343Z" fill="black"/>
<path d="M93.8116 42.3686C93.8116 44.3038 92.253 45.8685 90.3253 45.8685C88.3975 45.8685 86.832 44.3038 86.832 42.3686C86.832 40.4334 88.3907 38.8688 90.3184 38.8688C92.2462 38.8688 93.8116 40.4334 93.8116 42.3686Z" fill="black"/>
<path d="M111.94 45.8685C113.865 45.8685 115.426 44.3015 115.426 42.3686C115.426 40.4357 113.865 38.8688 111.94 38.8688C110.014 38.8688 108.453 40.4357 108.453 42.3686C108.453 44.3015 110.014 45.8685 111.94 45.8685Z" fill="black"/>
<path d="M133.565 45.8685C135.49 45.8685 137.051 44.3015 137.051 42.3686C137.051 40.4357 135.49 38.8688 133.565 38.8688C131.639 38.8688 130.078 40.4357 130.078 42.3686C130.078 44.3015 131.639 45.8685 133.565 45.8685Z" fill="black"/>
<path d="M158.664 42.3686C158.664 44.3038 157.106 45.8685 155.178 45.8685C153.25 45.8685 151.691 44.3038 151.691 42.3686C151.691 40.4334 153.25 38.8688 155.178 38.8688C157.106 38.8688 158.664 40.4334 158.664 42.3686Z" fill="black"/>
<path d="M93.8116 61.8031C93.8116 63.7383 92.253 65.3029 90.3253 65.3029C88.3975 65.3029 86.832 63.7314 86.832 61.8031C86.832 59.8747 88.3907 58.3032 90.3184 58.3032C92.2462 58.3032 93.8116 59.8679 93.8116 61.8031Z" fill="black"/>
<path d="M111.94 65.3029C113.865 65.3029 115.426 63.736 115.426 61.8031C115.426 59.8702 113.865 58.3032 111.94 58.3032C110.014 58.3032 108.453 59.8702 108.453 61.8031C108.453 63.736 110.014 65.3029 111.94 65.3029Z" fill="black"/>
<path d="M133.565 65.3029C135.49 65.3029 137.051 63.736 137.051 61.8031C137.051 59.8702 135.49 58.3032 133.565 58.3032C131.639 58.3032 130.078 59.8702 130.078 61.8031C130.078 63.736 131.639 65.3029 133.565 65.3029Z" fill="black"/>
<path d="M158.664 61.8031C158.664 63.7383 157.106 65.3029 155.178 65.3029C153.25 65.3029 151.691 63.7383 151.691 61.8031C151.691 59.8679 153.25 58.3032 155.178 58.3032C157.106 58.3032 158.664 59.8679 158.664 61.8031Z" fill="black"/>
</g>
</g>
<defs>
<clipPath id="clip0_1_339">
<rect width="71.8332" height="65.3029" fill="white" transform="translate(0 80.303)"/>
</clipPath>
<clipPath id="clip1_1_339">
<rect width="71.8332" height="65.3029" fill="white"/>
</clipPath>
<clipPath id="clip2_1_339">
<rect width="71.8332" height="65.3029" fill="white" transform="translate(86.832 80.3027)"/>
</clipPath>
<clipPath id="clip3_1_339">
<rect width="71.8332" height="65.3029" fill="white" transform="translate(86.832)"/>
</clipPath>
</defs>
</svg>
