<svg width="18" height="16" viewBox="0 0 18 16" fill="none" xmlns="http://www.w3.org/2000/svg">
<path fill-rule="evenodd" clip-rule="evenodd" d="M3.01212 4.25C3.01212 2.15 4.66869 0.5 6.77706 0.5C8.88543 0.5 10.542 2.15 10.542 4.25C10.542 6.35 8.88543 8 6.77706 8C4.66869 8 3.01212 6.35 3.01212 4.25ZM13.5539 13.25V14.75C13.5539 15.2 13.2527 15.5 12.8009 15.5C12.3492 15.5 12.048 15.2 12.048 14.75V13.25C12.048 11.975 11.0691 11 9.78899 11H3.76507C2.48499 11 1.5061 11.975 1.5061 13.25V14.75C1.5061 15.2 1.20491 15.5 0.753112 15.5C0.301318 15.5 0.00012207 15.2 0.00012207 14.75V13.25C0.00012207 11.15 1.6567 9.5 3.76507 9.5H9.78899C11.8974 9.5 13.5539 11.15 13.5539 13.25ZM6.77699 6.5C5.49691 6.5 4.51802 5.525 4.51802 4.25C4.51802 2.975 5.49691 2 6.77699 2C8.05707 2 9.03596 2.975 9.03596 4.25C9.03596 5.525 8.05707 6.5 6.77699 6.5ZM15.2105 9.65005C14.834 9.57505 14.3822 9.80005 14.3069 10.1751C14.2316 10.5501 14.4575 11.0001 14.834 11.0751C15.8129 11.3001 16.4906 12.2001 16.4906 13.2501V14.7501C16.4906 15.2001 16.7918 15.5001 17.2436 15.5001C17.6953 15.5001 17.9965 15.2001 17.9965 14.7501V13.2501C18.0718 11.5251 16.9424 10.0251 15.2105 9.65005ZM11.295 1.17501C11.4456 0.725008 11.8221 0.500008 12.1986 0.650008C14.2317 1.10001 15.4364 3.20001 14.9093 5.30001C14.6081 6.65001 13.554 7.62501 12.1986 8.00001H12.048C11.6715 8.00001 11.3703 7.77501 11.295 7.40001C11.1444 7.02501 11.4456 6.57501 11.8221 6.50001C12.6504 6.27501 13.2528 5.67501 13.4787 4.85001C13.7799 3.57501 13.0269 2.37501 11.8221 2.07501C11.4456 2.00001 11.2197 1.55001 11.295 1.17501Z" fill="#5C5D5F"/>
</svg>
